<svg width="374" height="374" viewBox="0 0 374 374" fill="none" xmlns="http://www.w3.org/2000/svg">
<circle cx="187" cy="187" r="187" fill="#141E22"/>
<path d="M179.27 100.74C183.262 100.74 186.5 103.978 186.5 107.97C186.5 111.962 183.262 115.2 179.27 115.2C175.278 115.2 172.04 111.962 172.04 107.97C172.04 103.978 175.278 100.74 179.27 100.74ZM208.19 100.74C212.182 100.74 215.42 103.978 215.42 107.97C215.42 111.962 212.182 115.2 208.19 115.2C204.198 115.2 200.96 111.962 200.96 107.97C200.96 103.978 204.198 100.74 208.19 100.74ZM273.26 71.82H99.74C83.7738 71.8388 70.8401 84.7737 70.82 100.74V274.26C70.8388 290.226 83.7738 303.16 99.74 303.18H273.26C289.226 303.161 302.16 290.226 302.18 274.26V100.74C302.161 84.7737 289.226 71.8401 273.26 71.82ZM99.74 288.72C91.7569 288.711 85.2894 282.243 85.28 274.26V100.74C85.2894 92.7569 91.7569 86.2894 99.74 86.28H215.42C223.403 86.2894 229.871 92.7569 229.88 100.74V274.26C229.871 282.243 223.403 288.711 215.42 288.72H99.74ZM240.452 288.72C243.003 284.333 244.34 279.334 244.34 274.26V100.74C244.34 95.6657 243.003 90.667 240.452 86.28H244.34C252.323 86.2894 258.79 92.7569 258.8 100.74V274.26C258.79 282.243 252.323 288.711 244.34 288.72H240.452ZM287.72 274.26C287.711 282.243 281.243 288.711 273.26 288.72H269.372C271.923 284.333 273.26 279.334 273.26 274.26V100.74C273.26 95.6657 271.923 90.667 269.372 86.28H273.26C281.243 86.2894 287.711 92.7569 287.72 100.74V274.26ZM208.19 129.66H106.97C102.978 129.66 99.74 132.898 99.74 136.89V209.19C99.74 213.182 102.978 216.42 106.97 216.42H208.19C212.182 216.42 215.42 213.182 215.42 209.19V136.89C215.42 132.898 212.182 129.66 208.19 129.66ZM200.96 201.96H114.2V144.12H200.96V201.96ZM208.19 230.88H106.97C102.978 230.88 99.74 234.118 99.74 238.11C99.74 242.102 102.978 245.34 106.97 245.34H208.19C212.182 245.34 215.42 242.102 215.42 238.11C215.42 234.118 212.182 230.88 208.19 230.88ZM208.19 259.8H106.97C102.978 259.8 99.74 263.038 99.74 267.03C99.74 271.022 102.978 274.26 106.97 274.26H208.19C212.182 274.26 215.42 271.022 215.42 267.03C215.42 263.038 212.182 259.8 208.19 259.8Z" fill="#39DB7D"/>
</svg>
