<svg width="100" height="100" viewBox="0 0 100 100" fill="none" xmlns="http://www.w3.org/2000/svg">
<circle cx="50" cy="50" r="50" fill="#141E22"/>
<path d="M47.9331 26.9358C49.0004 26.9358 49.8663 27.8017 49.8663 28.869C49.8663 29.9362 49.0004 30.8021 47.9331 30.8021C46.8659 30.8021 46 29.9362 46 28.869C46 27.8017 46.8659 26.9358 47.9331 26.9358ZM55.6658 26.9358C56.733 26.9358 57.5989 27.8017 57.5989 28.869C57.5989 29.9362 56.733 30.8021 55.6658 30.8021C54.5985 30.8021 53.7326 29.9362 53.7326 28.869C53.7326 27.8017 54.5985 26.9358 55.6658 26.9358ZM73.0642 19.2032H26.6684C22.3994 19.2082 18.9412 22.6668 18.9358 26.9358V73.3315C18.9409 77.6006 22.3994 81.0588 26.6684 81.0642H73.0642C77.3332 81.0591 80.7914 77.6006 80.7968 73.3315V26.9358C80.7918 22.6668 77.3332 19.2086 73.0642 19.2032ZM26.6684 77.1978C24.5339 77.1953 22.8047 75.4661 22.8021 73.3315V26.9358C22.8046 24.8013 24.5339 23.072 26.6684 23.0695H57.5989C59.7335 23.072 61.4627 24.8013 61.4652 26.9358V73.3315C61.4627 75.4661 59.7335 77.1953 57.5989 77.1978H26.6684ZM64.2919 77.1978C64.9741 76.0248 65.3315 74.6883 65.3315 73.3315V26.9358C65.3315 25.5791 64.9741 24.2425 64.2919 23.0695H65.3315C67.466 23.072 69.1953 24.8013 69.1978 26.9358V73.3315C69.1953 75.4661 67.466 77.1953 65.3315 77.1978H64.2919ZM76.9305 73.3315C76.928 75.4661 75.1987 77.1953 73.0642 77.1978H72.0246C72.7067 76.0248 73.0642 74.6883 73.0642 73.3315V26.9358C73.0642 25.5791 72.7067 24.2425 72.0246 23.0695H73.0642C75.1987 23.072 76.928 24.8013 76.9305 26.9358V73.3315ZM55.6658 34.6684H28.6016C27.5343 34.6684 26.6684 35.5343 26.6684 36.6016V55.9331C26.6684 57.0004 27.5343 57.8663 28.6016 57.8663H55.6658C56.733 57.8663 57.5989 57.0004 57.5989 55.9331V36.6016C57.5989 35.5343 56.733 34.6684 55.6658 34.6684ZM53.7326 54H30.5348V38.5347H53.7326V54ZM55.6658 61.7326H28.6016C27.5343 61.7326 26.6684 62.5985 26.6684 63.6658C26.6684 64.733 27.5343 65.5989 28.6016 65.5989H55.6658C56.733 65.5989 57.5989 64.733 57.5989 63.6658C57.5989 62.5985 56.733 61.7326 55.6658 61.7326ZM55.6658 69.4652H28.6016C27.5343 69.4652 26.6684 70.3311 26.6684 71.3984C26.6684 72.4656 27.5343 73.3315 28.6016 73.3315H55.6658C56.733 73.3315 57.5989 72.4656 57.5989 71.3984C57.5989 70.3311 56.733 69.4652 55.6658 69.4652Z" fill="#39DB7D"/>
</svg>
